# xmcd
#
# Track frame offsets:
# 150
# 16168
# 45757
# 62087
# 77931
# 95575
# 126627
# 145103
# 173546
# 204312
# 227261
# 255921
# 281027
# 301676
#
# Disc length: 4373 seconds
#
#
# Revision: 1
# Processed by: cddbd v1.5.1PL0 Copyright (c) Steve Scherf et al.
# Submitted via: FreeRIP 2.942 
#
DISCID=aa11130e
DTITLE=Simonovits István - Eternal present
DYEAR=2000
DGENRE=Blues
TTITLE0=Daydream
TTITLE1=First we take Manhattan
TTITLE2=New York touch
TTITLE3=Film1: No money, no honey
TTITLE4=Film2: Running possibilities
TTITLE5=Film3: Treasures
TTITLE6=Film4: Long ride
TTITLE7=Say
TTITLE8=Honey, honey
TTITLE9=She is away
TTITLE10=Can't hide your tears
TTITLE11=Sunshine
TTITLE12=Night and Day
TTITLE13=Strange
EXTD=
EXTT0=
EXTT1=
EXTT2=
EXTT3=
EXTT4=
EXTT5=
EXTT6=
EXTT7=
EXTT8=
EXTT9=
EXTT10=
EXTT11=
EXTT12=
EXTT13=
PLAYORDER=
